<mxfile host="app.diagrams.net" modified="2021-03-05T07:40:23.216Z" agent="5.0 (Windows NT 10.0; WOW64) AppleWebKit/537.36 (KHTML, like Gecko) Chrome/88.0.4324.150 Safari/537.36" etag="15lADgmEtHl48NcNZK5o" version="14.4.4" type="github">
  <diagram name="Page-1" id="9f46799a-70d6-7492-0946-bef42562c5a5">
    <mxGraphModel dx="1422" dy="762" grid="1" gridSize="10" guides="1" tooltips="1" connect="1" arrows="1" fold="1" page="1" pageScale="1" pageWidth="1100" pageHeight="850" background="#ffffff" math="0" shadow="0">
      <root>
        <mxCell id="0" />
        <mxCell id="1" parent="0" />
        <mxCell id="adFFctRF337x87Fo5Gor-10" value="" style="edgeStyle=orthogonalEdgeStyle;rounded=0;orthogonalLoop=1;jettySize=auto;html=1;" edge="1" parent="1" source="adFFctRF337x87Fo5Gor-1" target="adFFctRF337x87Fo5Gor-5">
          <mxGeometry relative="1" as="geometry" />
        </mxCell>
        <mxCell id="adFFctRF337x87Fo5Gor-1" value="用户" style="ellipse;whiteSpace=wrap;html=1;" vertex="1" parent="1">
          <mxGeometry x="260" y="385" width="120" height="80" as="geometry" />
        </mxCell>
        <mxCell id="adFFctRF337x87Fo5Gor-9" value="" style="edgeStyle=orthogonalEdgeStyle;rounded=0;orthogonalLoop=1;jettySize=auto;html=1;" edge="1" parent="1" source="adFFctRF337x87Fo5Gor-2" target="adFFctRF337x87Fo5Gor-1">
          <mxGeometry relative="1" as="geometry" />
        </mxCell>
        <mxCell id="adFFctRF337x87Fo5Gor-2" value="账号" style="ellipse;whiteSpace=wrap;html=1;" vertex="1" parent="1">
          <mxGeometry x="260" y="220" width="120" height="80" as="geometry" />
        </mxCell>
        <mxCell id="adFFctRF337x87Fo5Gor-8" value="" style="edgeStyle=orthogonalEdgeStyle;rounded=0;orthogonalLoop=1;jettySize=auto;html=1;" edge="1" parent="1" source="adFFctRF337x87Fo5Gor-3" target="adFFctRF337x87Fo5Gor-1">
          <mxGeometry relative="1" as="geometry" />
        </mxCell>
        <mxCell id="adFFctRF337x87Fo5Gor-3" value="组织" style="ellipse;whiteSpace=wrap;html=1;" vertex="1" parent="1">
          <mxGeometry x="260" y="550" width="120" height="80" as="geometry" />
        </mxCell>
        <mxCell id="adFFctRF337x87Fo5Gor-7" value="" style="edgeStyle=orthogonalEdgeStyle;rounded=0;orthogonalLoop=1;jettySize=auto;html=1;" edge="1" parent="1" source="adFFctRF337x87Fo5Gor-4" target="adFFctRF337x87Fo5Gor-3">
          <mxGeometry relative="1" as="geometry" />
        </mxCell>
        <mxCell id="adFFctRF337x87Fo5Gor-12" style="edgeStyle=orthogonalEdgeStyle;rounded=0;orthogonalLoop=1;jettySize=auto;html=1;entryX=0;entryY=0.5;entryDx=0;entryDy=0;" edge="1" parent="1" source="adFFctRF337x87Fo5Gor-4" target="adFFctRF337x87Fo5Gor-1">
          <mxGeometry relative="1" as="geometry" />
        </mxCell>
        <mxCell id="adFFctRF337x87Fo5Gor-4" value="租户" style="ellipse;whiteSpace=wrap;html=1;" vertex="1" parent="1">
          <mxGeometry x="40" y="550" width="120" height="80" as="geometry" />
        </mxCell>
        <mxCell id="adFFctRF337x87Fo5Gor-11" value="" style="edgeStyle=orthogonalEdgeStyle;rounded=0;orthogonalLoop=1;jettySize=auto;html=1;" edge="1" parent="1" source="adFFctRF337x87Fo5Gor-5" target="adFFctRF337x87Fo5Gor-6">
          <mxGeometry relative="1" as="geometry" />
        </mxCell>
        <mxCell id="adFFctRF337x87Fo5Gor-5" value="角色" style="ellipse;whiteSpace=wrap;html=1;" vertex="1" parent="1">
          <mxGeometry x="480" y="385" width="120" height="80" as="geometry" />
        </mxCell>
        <mxCell id="adFFctRF337x87Fo5Gor-6" value="菜单" style="ellipse;whiteSpace=wrap;html=1;" vertex="1" parent="1">
          <mxGeometry x="710" y="385" width="120" height="80" as="geometry" />
        </mxCell>
      </root>
    </mxGraphModel>
  </diagram>
</mxfile>
